<?xml version="1.0" encoding="utf-8"?>
<!-- Generator: Adobe Illustrator 26.3.1, SVG Export Plug-In . SVG Version: 6.00 Build 0)  -->
<svg version="1.1" id="Capa_1" xmlns="http://www.w3.org/2000/svg" xmlns:xlink="http://www.w3.org/1999/xlink" x="0px" y="0px"
	 viewBox="0 0 1042.8 800" style="enable-background:new 0 0 1042.8 800;" xml:space="preserve">
<style type="text/css">
	.st0{fill:#0077F8;}
	.st1{fill:#231F2F;}
	.st2{fill:#FFFFFF;}
	.st3{fill:#FFFFFF;stroke:#231F2F;stroke-width:1.0587;stroke-miterlimit:10;}
</style>
<g>
	<path class="st1" d="M355,430.4c-3.1,3.5-6.6,6.4-10.5,8.6c-3.9,2.2-8.9,3.3-15.1,3.3c-3.5,0-6.9-0.5-10.1-1.4
		c-3.2-0.9-6-2.3-8.3-4.2c-2.4-1.9-4.3-4.4-5.7-7.3c-1.4-3-2.1-6.5-2.1-10.7c0-5.5,1.2-9.9,3.6-13.3c2.4-3.4,5.6-6.1,9.5-8
		c3.9-1.9,8.4-3.3,13.3-4.1c4.9-0.8,9.9-1.3,14.9-1.5l10.2-0.5v-3.9c0-4.8-1.3-8.2-4-10c-2.7-1.8-5.8-2.7-9.5-2.7
		c-8.4,0-13.2,3.2-14.4,9.5l-19.4-1.8c1.4-8.3,5.1-14.3,10.9-18c5.9-3.7,13.7-5.5,23.6-5.5c6.1,0,11.2,0.7,15.5,2.2
		c4.2,1.5,7.7,3.6,10.2,6.3c2.6,2.7,4.4,6,5.6,9.9c1.2,3.9,1.7,8.3,1.7,13.1v50h-20V430.4z M354.5,405.1l-9.4,0.5
		c-4.4,0.2-8,0.7-10.8,1.4c-2.7,0.7-4.8,1.6-6.3,2.7c-1.5,1.1-2.5,2.3-3,3.7c-0.5,1.4-0.8,3-0.8,4.7c0,2.6,0.9,4.7,2.7,6.2
		c1.8,1.5,4.3,2.3,7.6,2.3c5.5,0,9.9-1.3,13.3-3.8c1.9-1.4,3.5-3.2,4.7-5.4c1.2-2.2,1.8-4.9,1.8-8.1V405.1z"/>
	<path class="st1" d="M396.9,377.8h-12.4v-16.5h12.4v-21.1h21.2v21.1h18.2v16.5h-18.2v36.5c0,4.1,0.9,6.9,2.6,8.4
		c1.7,1.5,3.9,2.2,6.7,2.2c1.4,0,2.9-0.1,4.3-0.2c1.5-0.2,2.9-0.4,4.3-0.8l3,15.6c-2.9,0.9-5.8,1.5-8.6,1.9c-2.8,0.4-5.4,0.5-8,0.5
		c-8.7,0-15.1-2.1-19.3-6.2c-4.2-4.1-6.3-11.1-6.3-20.9V377.8z"/>
	<path class="st1" d="M453.4,377.8H441v-16.5h12.4v-21.1h21.2v21.1h18.2v16.5h-18.2v36.5c0,4.1,0.9,6.9,2.6,8.4
		c1.7,1.5,3.9,2.2,6.7,2.2c1.4,0,2.9-0.1,4.3-0.2c1.5-0.2,2.9-0.4,4.3-0.8l3,15.6c-2.9,0.9-5.8,1.5-8.6,1.9c-2.8,0.4-5.4,0.5-8,0.5
		c-8.7,0-15.1-2.1-19.3-6.2c-4.2-4.1-6.3-11.1-6.3-20.9V377.8z"/>
	<path class="st1" d="M505.1,361.3h20.6v10.6c2.9-4.4,6.4-7.7,10.3-9.8c3.9-2.1,8.1-3.2,12.4-3.2c5.8,0,10.5,1.2,14.1,3.5
		c3.6,2.3,6.2,5.7,7.7,10.2c3.6-4.8,7.5-8.3,11.5-10.5c4-2.1,8.5-3.2,13.3-3.2c8.2,0,14.3,2.2,18.4,6.7c4.1,4.5,6.1,11.8,6.1,21.9
		v52.9h-21.2v-50c0-2.8-0.3-5.1-0.8-6.9c-0.5-1.8-1.2-3.2-2-4.2c-0.9-1-1.9-1.7-3.1-2.1c-1.2-0.4-2.5-0.6-3.8-0.6
		c-2.1,0-4.1,0.4-5.8,1.1c-1.8,0.7-3.5,1.9-5.2,3.6c-1.4,1.4-2.6,3-3.4,4.8c-0.9,1.8-1.3,3.7-1.3,5.8v48.5h-21.2v-50
		c0-2.8-0.3-5.1-0.8-6.9c-0.5-1.8-1.2-3.2-2-4.2c-0.9-1-1.9-1.7-3.1-2.1c-1.2-0.4-2.5-0.6-3.8-0.6c-2.1,0-4.1,0.4-5.8,1.1
		c-1.8,0.7-3.5,1.9-5.2,3.6c-1.4,1.4-2.6,3.1-3.4,5.1c-0.9,2-1.3,4.1-1.3,6.4v47.6h-21.2V361.3z"/>
	<path class="st1" d="M674.1,442.8c-12.7,0-22.6-3.6-29.5-10.9c-7-7.3-10.5-17.7-10.5-31.2c0-6.5,0.9-12.3,2.8-17.5
		c1.9-5.2,4.5-9.6,8-13.2c3.5-3.6,7.7-6.3,12.7-8.3c4.9-1.9,10.5-2.9,16.5-2.9c6.2,0,11.7,1,16.7,2.9c4.9,1.9,9.2,4.7,12.7,8.3
		c3.5,3.6,6.1,8,8,13.2c1.8,5.2,2.7,11,2.7,17.5c0,6.6-0.9,12.5-2.8,17.7c-1.9,5.2-4.5,9.6-8,13.3c-3.5,3.6-7.7,6.4-12.7,8.3
		C685.6,441.9,680.1,442.8,674.1,442.8z M674.1,425.9c6.1,0,10.6-2.2,13.6-6.5c3-4.3,4.5-10.6,4.5-18.6c0-8.1-1.5-14.2-4.5-18.5
		c-3-4.2-7.5-6.4-13.6-6.4c-6.1,0-10.6,2.1-13.6,6.4c-3,4.2-4.5,10.4-4.5,18.5c0,8.2,1.5,14.4,4.4,18.7
		C663.4,423.7,667.9,425.9,674.1,425.9z"/>
	<path class="st1" d="M716.5,361.3H741l17.7,55l17.7-55H800l-31.2,79.1h-21.2L716.5,361.3z"/>
	<path class="st1" d="M809.5,332.2h21.8v19.1h-21.8V332.2z M809.8,361.3H831v79.1h-21.2V361.3z"/>
	<path class="st1" d="M849.2,332.2h21.2v108.2h-21.2V332.2z"/>
</g>
<path class="st0" d="M263.7,376.3l22.1-22.1c7.7-7.7,9.9-18.7,5.7-28.8c-4.2-10.1-13.5-16.3-24.4-16.3h-92.5v19.1h92.5
	c3.1,0,5.6,1.7,6.8,4.5c1.2,2.9,0.6,5.8-1.6,8l-22.1,22.1L235.3,348h-61v8.3h-17.9v13.3h17.9v14.5h-17.9v13.3h17.9v8.6h59.9l16-16
	l21.4,21.4c2.2,2.2,2.8,5.1,1.6,8c-1.2,2.9-3.7,4.5-6.8,4.5h-91.8v19.1h91.8c10.9,0,20.2-6.2,24.4-16.3c4.2-10.1,2-21.1-5.7-28.8
	L263.7,376.3z M193.4,386.8V367h34l9.3,9.3l-10.4,10.4H193.4z"/>
</svg>
